<svg xmlns="http://www.w3.org/2000/svg" viewBox="0 0 500 500"><g id="freepik--background-simple--inject-121"><path d="M212,79.45c1.6,0,3.2.09,4.81.18,30,1.64,59,15.64,79.57,37.37,26.18,27.6,26.71,65.35,36,100.16,8,30,25.71,39.39,47.71,57.74,15.45,12.88,26.6,32.81,27.15,53.09.51,18.67-6.94,38.18-22.6,48.8-39.46,26.75-91.2-12.64-127.8-27.23-65.48-26.1-155.69,3.81-177.88-86.2C57.67,176.87,117.94,77.68,212,79.45Z" style="fill:#407BFF"></path><path d="M212,79.45c1.6,0,3.2.09,4.81.18,30,1.64,59,15.64,79.57,37.37,26.18,27.6,26.71,65.35,36,100.16,8,30,25.71,39.39,47.71,57.74,15.45,12.88,26.6,32.81,27.15,53.09.51,18.67-6.94,38.18-22.6,48.8-39.46,26.75-91.2-12.64-127.8-27.23-65.48-26.1-155.69,3.81-177.88-86.2C57.67,176.87,117.94,77.68,212,79.45Z" style="fill:#fff;opacity:0.9"></path></g><g id="freepik--Shadow--inject-121"><ellipse id="freepik--path--inject-121" cx="250" cy="416.24" rx="193.89" ry="11.32" style="fill:#f5f5f5"></ellipse></g><g id="freepik--Puzzle--inject-121"><rect x="234.19" y="153.34" width="142.74" height="258.35" style="fill:#407BFF"></rect><rect x="318.99" y="153.34" width="57.94" height="258.35" transform="translate(695.93 565.03) rotate(180)" style="opacity:0.2;isolation:isolate"></rect><polygon points="355.32 252.94 340.6 252.94 330.19 266.8 330.19 286.41 340.6 300.27 355.32 300.27 365.73 286.41 365.73 266.8 355.32 252.94" style="opacity:0.5;isolation:isolate"></polygon><polygon points="341.06 299.35 331.12 286.1 331.12 267.11 341.06 253.87 354.86 253.87 364.81 267.11 364.81 286.1 354.86 299.35 341.06 299.35" style="fill:#407BFF"></polygon><polygon points="300.81 192.54 288.7 213.51 264.48 213.51 252.38 192.54 264.48 171.57 288.7 171.57 300.81 192.54" style="opacity:0.2;isolation:isolate"></polygon><rect x="256.69" y="256.71" width="39.8" height="39.8" transform="translate(553.2 0.02) rotate(90)" style="opacity:0.2;isolation:isolate"></rect><path d="M300.35,357a23.75,23.75,0,0,1-21.45,23.64,21.91,21.91,0,0,1-2.31.12,23.76,23.76,0,1,1,0-47.52,21.91,21.91,0,0,1,2.31.12A23.75,23.75,0,0,1,300.35,357Z" style="opacity:0.2;isolation:isolate"></path><polygon points="367.6 215.99 328.32 215.99 344.73 178.06 347.96 170.58 367.6 215.99" style="opacity:0.2;isolation:isolate"></polygon><polygon points="361.14 215.99 328.32 215.99 344.73 178.06 361.14 215.99" style="opacity:0.5;isolation:isolate"></polygon><polygon points="366.22 348.71 359.24 380.77 336.68 380.77 329.71 348.71 344.26 332.9 347.96 328.89 366.22 348.71" style="opacity:0.2;isolation:isolate"></polygon><polygon points="358.83 348.71 351.85 380.77 336.68 380.77 329.71 348.71 344.26 332.9 358.83 348.71" style="opacity:0.5;isolation:isolate"></polygon><polygon points="358.83 348.71 366.22 348.71 347.96 328.89 344.26 332.9 358.83 348.71" style="opacity:0.2;isolation:isolate"></polygon><polygon points="300.81 192.54 288.7 213.51 269.1 213.51 257 192.54 269.1 171.57 288.7 171.57 300.81 192.54" style="opacity:0.5;isolation:isolate"></polygon><path d="M300.35,357a23.75,23.75,0,0,1-21.45,23.64,23.75,23.75,0,0,1,0-47.28A23.75,23.75,0,0,1,300.35,357Z" style="opacity:0.5;isolation:isolate"></path><rect x="259.6" y="259.34" width="39.8" height="34.53" transform="translate(556.11 -2.89) rotate(90)" style="opacity:0.5;isolation:isolate"></rect><path d="M234.19,366.47c0,.82,20.56,21.74,20.56,21.74l-2.89,21.24H234.19Z" style="opacity:0.2;isolation:isolate"></path><path d="M384.56,411.26v6.53h-158v-6.53a2.76,2.76,0,0,1,2.77-2.77H381.8A2.76,2.76,0,0,1,384.56,411.26Z" style="fill:#263238"></path><path d="M384.56,411.26v6.53H319v-6.53a2.76,2.76,0,0,1,2.77-2.77H381.8A2.76,2.76,0,0,1,384.56,411.26Z" style="opacity:0.2;isolation:isolate"></path><polygon points="233.16 368.84 227.42 365.28 202.23 380.7 197.57 410.95 203.31 414.51 225.63 417.79 244.08 389.57 233.16 368.84" style="fill:#407BFF"></polygon><polygon points="238.35 386 219.9 414.23 197.57 410.95 202.23 380.7 222.32 368.4 227.42 365.28 238.35 386" style="fill:#fff;opacity:0.30000000000000004"></polygon><polygon points="219.9 414.23 225.63 417.79 203.31 414.51 197.57 410.95 219.9 414.23" style="opacity:0.2;isolation:isolate"></polygon><polygon points="227.42 365.28 238.35 386 244.08 389.57 233.16 368.84 227.42 365.28" style="fill:#fff;opacity:0.2"></polygon><path d="M201.93,386.36c-.22-.42-4.5-5.94-4.79-6.33-4.86-6.54-17.34-5.5-27.87,2.33s-15.12,19.47-10.26,26c.29.39,4.63,5.87,5,6.21,5.39,5.3,17,3.95,26.92-3.42S205.45,393.06,201.93,386.36Z" style="fill:#407BFF"></path><path d="M186.88,406c-9.91,7.37-21.53,8.73-26.92,3.42a9.05,9.05,0,0,1-1-1.09c-4.86-6.54-.27-18.19,10.26-26s23-8.87,27.87-2.33a9.24,9.24,0,0,1,.77,1.22C201.43,387.94,196.79,398.68,186.88,406Z" style="fill:#fff;opacity:0.4"></path><polygon points="413.89 412.79 383.96 367.88 376.96 372.88 375.42 380.28 367.6 417.79 406.89 417.79 413.89 412.79" style="fill:#407BFF"></polygon><polygon points="413.89 412.79 374.6 412.79 382.42 375.28 383.96 367.88 413.89 412.79" style="fill:#407BFF"></polygon><polygon points="367.6 417.79 374.6 412.79 413.89 412.79 406.89 417.79 367.6 417.79" style="opacity:0.30000000000000004;isolation:isolate"></polygon><polygon points="413.89 412.79 374.6 412.79 382.42 375.28 383.96 367.88 413.89 412.79" style="fill:#fff;opacity:0.30000000000000004"></polygon></g><g id="freepik--speech-bubble--inject-121"><circle cx="88.11" cy="144.75" r="17.32" style="fill:#407BFF"></circle><path d="M94.43,164.86a4.07,4.07,0,1,0,4.06-4.06A4.07,4.07,0,0,0,94.43,164.86Z" style="fill:#407BFF"></path><path d="M100.81,170.23a2.17,2.17,0,1,0,2.17-2.17A2.17,2.17,0,0,0,100.81,170.23Z" style="fill:#407BFF"></path><path d="M105.58,172.35A1.39,1.39,0,1,0,107,171,1.39,1.39,0,0,0,105.58,172.35Z" style="fill:#407BFF"></path><g style="opacity:0.6000000000000001;isolation:isolate"><circle cx="88.11" cy="144.75" r="17.32" style="fill:#fff"></circle></g><g style="opacity:0.8;isolation:isolate"><path d="M94.43,164.86a4.07,4.07,0,1,0,4.06-4.06A4.07,4.07,0,0,0,94.43,164.86Z" style="fill:#fff"></path></g><g style="opacity:0.8;isolation:isolate"><path d="M100.81,170.23a2.17,2.17,0,1,0,2.17-2.17A2.17,2.17,0,0,0,100.81,170.23Z" style="fill:#fff"></path></g><g style="opacity:0.8;isolation:isolate"><path d="M105.58,172.35A1.39,1.39,0,1,0,107,171,1.39,1.39,0,0,0,105.58,172.35Z" style="fill:#fff"></path></g><path d="M86.46,149.76c-.08-1.16-.08-1.27-.08-1.37,0-3.25,3.25-5.14,3.25-7.95A2.32,2.32,0,0,0,87,138a3.93,3.93,0,0,0-3.22,1.68l-.73-2.38a4.88,4.88,0,0,1,4.15-1.85,5.17,5.17,0,0,1,5.46,4.94c0,3.14-4,5.27-4,9v.33Zm-.52,5.2v-3.22h3.22V155Z" style="fill:#263238;opacity:0.6000000000000001;isolation:isolate"></path></g><g id="freepik--Character--inject-121"><path d="M130.64,176.13a5.44,5.44,0,0,1,.92,1.07c1.68,2.52,3.41,6.18,2.47,9.25-1.35,4.36-1,11.35,2.18,13.76s3.83,4.81,3.17,7.32,2.19,6,4.37,5v3a4.65,4.65,0,0,1-5.57-1.1c-2.53-2.75-2.08-4.34-2.41-7.38a4.43,4.43,0,0,0-3.41-3.7s1.84,1.89,1.88,3.7-1.2,9.6.33,10.71c0,0-16.11,7.57-23,6.14s-12-9.47-12-9.47-1.1-6,2.84-7.38,9-2.28,6.88-5.56a10.77,10.77,0,0,1-1.22-6.74,66.16,66.16,0,0,0-.18-8.2,11.32,11.32,0,0,1,.11-2.73,11.83,11.83,0,0,1,1-2.64l1-2.17a6.31,6.31,0,0,1,2.27-2.45c.94-.79,1.22-1.93,2.39-2.56a9.59,9.59,0,0,1,3.63-.88,27.37,27.37,0,0,1,3.26-.16C124.33,173.07,128.36,174,130.64,176.13Z" style="fill:#263238"></path><path d="M155.45,213.89l1.83-5.32s-.37-2.57-.7-3.68,5.53-6.36,5.53-6.36l4.24,4.32s-5.24,6.13-5.84,6.11l-1.89,6.54Z" style="fill:#eec1bb"></path><path d="M160.34,211.91s-4.24,19-7.8,21c-2,1.13-6.36-1.48-9.79-4-2.69-2-4.82-3.86-4.82-3.86l.35-4.29.56-6.92c2.64,1.52,9.68,12.42,10.77,12.32s7-16.59,7-16.59Z" style="fill:#407BFF"></path><path d="M142.75,229c-2.69-2-4.82-3.86-4.82-3.86l.35-4.29C140,222.24,143,225.34,142.75,229Z" style="opacity:0.2;isolation:isolate"></path><path d="M102.3,397.5l4.21,2.47a80.67,80.67,0,0,1,6.4-7.58h0c1.22-1.29,2.5-2.72,3.83-4.25,2.67-3.06,5.55-6.56,8.58-10.31l2.71-3.39c10.53-13.26,21.92-28.84,26.18-39.38,1.33-3.27,2-6.05,1.69-8.14-.87-6.29-3.32-15.76-6.11-24.91-4.26-14-9-27.24-9-27.24L129,294.67s3.61,8.6,6.9,17.76c3.23,9,6.15,18.54,5.07,21l-.38.84c-2,4-7.36,13.2-13.5,23.32-.61,1-1.24,2.05-1.87,3.07-3.29,5.41-6.72,11-9.89,16.06l-3.58,5.77C106.33,391.19,102.3,397.5,102.3,397.5Z" style="fill:#eec1bb"></path><path d="M128.27,374.43c-5.57,7-10.91,13.33-14.88,17.95-.57-2.84-1.14-6.21-1.6-9.87,4.6-7.38,10.22-16.48,15.32-24.9A96.71,96.71,0,0,0,128.27,374.43Z" style="opacity:0.2;isolation:isolate"></path><path d="M107.28,316.8c1.46,9.93,3.53,18.92,4.88,24.28.82,3.22,1.36,5.12,1.36,5.12a271.41,271.41,0,0,0,1.8,30.54c.44,4,.92,7.82,1.42,11.39,1.83,13.19,3.76,22.66,3.76,22.66l5-.65-.19-32.32-.11-17.14-.14-23.31,0-4.06-.24-17.73-.36-26.14L107,281.6C104.65,291.53,105.52,304.85,107.28,316.8Z" style="fill:#eec1bb"></path><path d="M102.69,394.75c.51-.38,4.85,6.12,4.85,6.12s-1,6.78,1,11.15-1.85,4-5-.14L95.7,401.64C93.45,398.69,97.36,398.62,102.69,394.75Z" style="fill:#263238"></path><path d="M109,405.78c-1-.23-1.63-3-1.74-3.6a.11.11,0,0,1,0-.08h0a.14.14,0,0,1,0-.07h0l0,0h0l.08,0c.09,0,1.92-.61,2.91,0a1.24,1.24,0,0,1,.59.82q.12.58-.21.81c-.34.23-1,0-1.66-.26a3.16,3.16,0,0,1,.91,1.5.85.85,0,0,1-.16.65.82.82,0,0,1-.64.38Zm.09-.4s.17,0,.36-.21a.39.39,0,0,0,.08-.34c-.08-.65-1.05-1.59-1.74-2.16C108.11,403.87,108.64,405.27,109.1,405.38ZM108,402.22c1,.65,2.21,1.17,2.5,1,.09-.06.06-.27,0-.38a.76.76,0,0,0-.4-.55,1.86,1.86,0,0,0-.94-.2A5.2,5.2,0,0,0,108,402.22Z" style="fill:#407BFF"></path><path d="M118.72,407.6c0-.64,7.82-.14,7.82-.14s4.8,4.88,9.46,6,2.05,3.89-3.16,3.89H120C116.25,417.33,118.57,414.18,118.72,407.6Z" style="fill:#263238"></path><path d="M127.41,408.47l-.07-.05h0l0-.06h0a.14.14,0,0,1,0-.06h0a.22.22,0,0,1,0-.08c0-.09.69-1.9,1.74-2.34a1.19,1.19,0,0,1,1,0c.36.17.53.39.52.66s-.58.82-1.22,1.16a3.12,3.12,0,0,1,1.75.19.82.82,0,0,1,.42.53.75.75,0,0,1-.19.83,1.09,1.09,0,0,1-.69.18A9.91,9.91,0,0,1,127.41,408.47Zm.71-.13c1.15.48,2.58.91,2.95.61,0,0,.13-.11.05-.41a.43.43,0,0,0-.22-.28,2,2,0,0,0-.92-.17A9.27,9.27,0,0,0,128.12,408.34Zm1.08-2.09a3.39,3.39,0,0,0-1.33,1.68c1.15-.44,2.27-1.05,2.29-1.4,0-.1-.18-.21-.28-.26a.94.94,0,0,0-.36-.08A.91.91,0,0,0,129.2,406.25Z" style="fill:#407BFF"></path><path d="M152,292.06l-21.41,7.61-.72-2-.88-2.42-.36,3.49-.28,2.67h-26s-.08-.75-.16-2.09a133.22,133.22,0,0,1,1-25.6,92.63,92.63,0,0,1,5.51-21.44c.22-.54.44-1.07.67-1.6l27.89-2.16.23,1.34,1.75,10,3.33,8.42,8.22,20.78Z" style="fill:#407BFF"></path><path d="M152,292.06l-21.41,7.61-.72-2-.88-2.42-.36,3.49-.28,2.67h-26s-.08-.75-.16-2.09a133.22,133.22,0,0,1,1-25.6,92.63,92.63,0,0,1,5.51-21.44c.22-.54.44-1.07.67-1.6l27.89-2.16.23,1.34,1.75,10,3.33,8.42,8.22,20.78Z" style="fill:#fff;opacity:0.7000000000000001"></path><path d="M126.3,252.13a1.42,1.42,0,1,0,1.42-1.41A1.42,1.42,0,0,0,126.3,252.13Z" style="fill:#fff;opacity:0.6000000000000001;isolation:isolate"></path><path d="M115.54,253.25s-3.17,17.47-12.3,20.51a92.63,92.63,0,0,1,5.51-21.44Z" style="opacity:0.2"></path><path d="M142.62,268.34c-7.31-3.57-7.19-17.62-7.19-17.62l2.11-.82,1.75,10Z" style="opacity:0.2"></path><path d="M128.63,298.78l-.28,2.67h-26s-.08-.75-.16-2.09Z" style="opacity:0.2"></path><polygon points="152 292.06 130.59 299.67 129.87 297.7 150.84 289.12 152 292.06" style="opacity:0.2"></polygon><path d="M129,295.3l.56-7.13,5.88-11.55s1.86,6.66-1.07,12.6S129,295.3,129,295.3Z" style="opacity:0.2"></path><polygon points="109.42 250.72 108.24 253.62 137.93 252.13 137.31 248.56 109.42 250.72" style="fill:#263238;isolation:isolate"></polygon><path d="M125.09,249.64l.35,3.26a.66.66,0,0,0,.71.59l4.35-.35a.65.65,0,0,0,.6-.72l-.3-3.21a.67.67,0,0,0-.71-.6l-4.38.3A.66.66,0,0,0,125.09,249.64Z" style="fill:#fff"></path><polygon points="117.81 250.03 117.47 253.87 116.39 253.87 116.56 250.03 117.81 250.03" style="fill:#407BFF"></polygon><polygon points="133.45 248.86 133.88 252.88 134.88 252.88 134.53 248.69 133.45 248.86" style="fill:#407BFF"></polygon><polygon points="117.81 250.03 117.47 253.87 116.39 253.87 116.56 250.03 117.81 250.03" style="fill:#fff;opacity:0.7000000000000001"></polygon><polygon points="133.45 248.86 133.88 252.88 134.88 252.88 134.53 248.69 133.45 248.86" style="fill:#fff;opacity:0.7000000000000001"></polygon><path d="M137.3,248.56l-27.88,2.15s.39-9-2.34-22.65c-.48-2.4-1-5-1.74-7.64-.61-2.34-1.31-4.78-2.1-7.29a22.61,22.61,0,0,1,4.34-1.56l0,0a58.77,58.77,0,0,1,13.43-1.9,33.85,33.85,0,0,1,13.81,2.1,16.24,16.24,0,0,1,4,2.14S140.23,227.71,137.3,248.56Z" style="fill:#407BFF"></path><path d="M123.72,216.71c-6.83-2.25-8.41-6-8.41-6,3.24-2.44,3.49-6.82,3.22-9.74a18.36,18.36,0,0,0-.48-2.93l8.14,3.27a28.8,28.8,0,0,0-.91,3.69c0,.07,0,.14,0,.22-.95,5.71,1.35,6.18,1.35,6.18C127.58,214.78,123.72,216.71,123.72,216.71Z" style="fill:#eec1bb"></path><path d="M126.19,201.33a28.8,28.8,0,0,0-.91,3.69c-2.62.16-5-2-6.75-4a18.36,18.36,0,0,0-.48-2.93Z" style="opacity:0.2;isolation:isolate"></path><path d="M122.05,178.52c7-.39,9.53,3.27,10.44,10.51,1.15,9-.51,15.61-9.44,14.15C110.93,201.2,110.33,179.16,122.05,178.52Z" style="fill:#eec1bb"></path><path d="M127.91,188.88a15,15,0,0,0,2.21,2.81,1.92,1.92,0,0,1-1.81.9Z" style="fill:#d4827d"></path><path d="M123.56,188.54c0,.58-.23,1.07-.61,1.1s-.74-.41-.78-1,.23-1.07.61-1.1S123.52,188,123.56,188.54Z" style="fill:#263238"></path><path d="M122.62,187.59l1.22-.59S123.3,188.1,122.62,187.59Z" style="fill:#263238"></path><path d="M130.75,187.86c0,.58-.23,1.07-.62,1.1s-.73-.41-.78-1,.23-1.08.62-1.11S130.7,187.28,130.75,187.86Z" style="fill:#263238"></path><path d="M129.81,186.91l1.22-.6S130.48,187.42,129.81,186.91Z" style="fill:#263238"></path><path d="M120.22,185.27a.36.36,0,0,1-.29-.57,4,4,0,0,1,3.32-1.39.37.37,0,0,1,.34.39.37.37,0,0,1-.39.34,3.28,3.28,0,0,0-2.68,1.08A.36.36,0,0,1,120.22,185.27Z" style="fill:#263238"></path><path d="M131.18,183.88a.29.29,0,0,1-.18,0,2.94,2.94,0,0,0-2.52-.4.37.37,0,0,1-.48-.19.38.38,0,0,1,.19-.48,3.66,3.66,0,0,1,3.17.45.36.36,0,0,1,.13.5A.37.37,0,0,1,131.18,183.88Z" style="fill:#263238"></path><path d="M127.43,195.43a18,18,0,0,0-.69,2.49l-.45,0c-2.07-.09-3-.82-3.39-1.59a2.73,2.73,0,0,1-.28-1.24,2.47,2.47,0,0,1,.1-.71,9.72,9.72,0,0,0,4,1Z" style="fill:#263238"></path><path d="M126.73,195.38l-.22.73c-2-.09-3.3-.42-3.89-1a2.47,2.47,0,0,1,.1-.71A9.72,9.72,0,0,0,126.73,195.38Z" style="fill:#fff"></path><path d="M126.29,197.9c-2.07-.09-3-.82-3.39-1.59a6.44,6.44,0,0,1,2.27.55A2.54,2.54,0,0,1,126.29,197.9Z" style="fill:#de5753"></path><path d="M115,190.83s3-6,2.24-10.42c0,0,13.66-6.48,15.13,7.67,0,0,.67-12.67-11.47-12.29s-11.11,18.12-4.56,23.06C116.33,198.85,113.15,194.57,115,190.83Z" style="fill:#263238"></path><path d="M116.22,192.26a3.1,3.1,0,0,0-3.48-2.65c-2.17.36-3,4.9,2.53,5.68C116.05,195.41,116.45,194.62,116.22,192.26Z" style="fill:#eec1bb"></path><path d="M117.23,180.41s7.47-1.4,11.11,1.23c0,0-3.62-4.56-11.47-2.18Z" style="fill:#263238"></path><path d="M134.87,211.75c-.12,1.51-1.35,5.66-11.31,5.58-12.15-.09-16-5.76-16-5.76l0,0a58.77,58.77,0,0,1,13.43-1.9A33.85,33.85,0,0,1,134.87,211.75Z" style="fill:#eec1bb"></path><polygon points="187.7 190.79 172.38 207.64 155.59 201.76 154.13 179.04 169.44 162.18 186.23 168.05 187.7 190.79" style="fill:#407BFF"></polygon><polygon points="183.86 189.44 168.54 206.29 155.59 201.76 154.13 179.04 169.44 162.18 182.39 166.71 183.86 189.44" style="fill:#fff;opacity:0.4"></polygon><polygon points="183.86 189.44 187.7 190.79 172.38 207.64 168.54 206.29 183.86 189.44" style="opacity:0.2;isolation:isolate"></polygon><polygon points="119.76 234.99 95.53 229.94 90.11 230.31 81.99 269.27 106.21 274.32 111.64 273.95 119.76 234.99" style="fill:#407BFF"></polygon><polygon points="114.33 235.36 106.21 274.32 101.49 273.34 89.68 270.88 81.99 269.28 90.11 230.31 114.33 235.36" style="fill:#fff;opacity:0.4"></polygon><polygon points="114.33 235.36 119.76 234.99 111.64 273.95 106.21 274.32 114.33 235.36" style="opacity:0.2;isolation:isolate"></polygon><polygon points="90.11 230.31 114.33 235.36 119.76 234.99 95.53 229.94 90.11 230.31" style="fill:#fff;opacity:0.2"></polygon><path d="M101.49,273.31v0l-9.75-2c0-2.74,3.35-6.58,3.35-6.58S101,267.26,101.49,273.31Z" style="opacity:0.2;isolation:isolate"></path><path d="M96.2,260.37v5.69a3.88,3.88,0,0,1,2,1.55c.87,1.25,2.31,6,2.31,6s-4.82,1.63-5.5.91-2.22-5.44-2.51-6.12.68-2.32.68-2.32l.1-5.11Z" style="fill:#eec1bb"></path><path d="M107.08,228.06c-.48-2.4-1-5-1.74-7.64A9,9,0,0,1,107,220S108.88,225.81,107.08,228.06Z" style="opacity:0.2;isolation:isolate"></path><path d="M103.24,213.13c-2.42,1.28-10.1,22.66-10.56,24s0,25.88,0,25.88h4.57s1.19-22.83,1.46-24.17,8-15.69,8-15.69.82-3.56,0-5.85A11.21,11.21,0,0,0,103.24,213.13Z" style="fill:#407BFF"></path><polygon points="119.44 226.1 132.81 224.98 126.99 237.5 119.44 226.1" style="fill:#fff;opacity:0.7000000000000001"></polygon><polygon points="131.84 229.26 133.88 232.65 130.45 232.65 131.84 229.26" style="opacity:0.2;isolation:isolate"></polygon></g></svg>